<?xml version="1.0" encoding="UTF-8"?>
<svg id="Layer_1" data-name="Layer 1" xmlns="http://www.w3.org/2000/svg" viewBox="0 0 142.31 142.31">
  <defs>
    <style>
      .cls-1 {
        fill: #f0efeb;
      }
    </style>
  </defs>
  <circle class="cls-1" cx="71.15" cy="71.15" r="71.15"/>
  <path d="M69.89,34.02c.21-.44.6-.71.95-.76.27-.04.76.18.94.51,5.01,9.66,11.01,20.83,17.09,29.78,1.16,1.71,2.36,3.23,3.67,4.81.34.4.34.89.09,1.37-2.38,4.67-4.56,9.33-6.4,14.26-.97,2.62-1.74,5.15-2.21,8.01,1.86.13,3.56,1.4,3.58,3.31l.07,6.91c.02,2.03-1.53,3.61-3.58,3.62l-25.88.13c-1.71,0-3.22-1.61-3.23-3.23l-.05-7.19c-.01-2.21,2.08-3.58,4.25-3.33-1.2-6.94-6.08-16.09-9.55-22.2-.41-.72-.23-1.1.26-1.7,7.09-8.76,14.95-23.93,20-34.3ZM56.98,95.85l.04,6.64c0,.77.56,1.29,1.34,1.41l25.83-.15c.79-.09,1.39-.63,1.38-1.41l-.03-6.88c-.13-.71-.63-1.31-1.43-1.31l-25.78.15c-.83,0-1.35.75-1.35,1.55ZM70.05,66.05l-.19-27.14c-5.52,10.6-10.92,21.21-18.16,30.52,3.83,7.07,8.18,14.93,9.6,22.76l20.59-.12c.45-2.9,1.23-5.65,2.27-8.48,1.8-4.93,3.98-9.59,6.37-14.36-2.44-3.06-4.55-6.16-6.63-9.5-4.27-6.86-8.01-13.8-11.92-21l.14,27.32c2.27.61,3.79,2.69,3.53,4.98s-2.26,4.09-4.61,4.06c-2.29-.03-4.19-1.8-4.45-4.09s1.25-4.25,3.47-4.97Z"/>
</svg>