<?xml version="1.0" encoding="UTF-8"?>
<svg id="Layer_1" data-name="Layer 1" xmlns="http://www.w3.org/2000/svg" viewBox="0 0 142.31 142.31">
  <defs>
    <style>
      .cls-1 {
        fill: #f0efeb;
      }

      .cls-2 {
        fill: #2b2925;
      }
    </style>
  </defs>
  <circle class="cls-1" cx="71.15" cy="71.15" r="71.15"/>
  <path class="cls-2" d="M80.94,111.04l-13.58-.14-8.09-8.08-6.22,6.11-6.86-6.75,6.06-6.33-5.33-5.42-6.22,6.11-6.9-6.8,6.11-6.21-5.15-5.34-3.03,2.22.07-13.42,8.13-8.24-6.11-6.18,6.86-6.87,6.22,6.13,5.39-5.42-6.13-6.23,6.87-6.84,6.23,6.13,5.31-5.32-2.31-2.88,13.63.1,7.97,8.06,6.38-6.07,6.83,6.81-6.12,6.25,5.4,5.4,6.19-6.1,6.9,6.81-6.12,6.22,5.29,5.37,2.89-2.26-.08,13.5-8.09,8.13,6.09,6.29-6.87,6.81-6.2-6.12-5.42,5.42,6.12,6.13-6.81,6.98-6.26-6.17-5.28,5.33,2.24,2.89ZM83.26,40.16l-7.87-7.93-10.86.11,13.31,13.27,5.41-5.45ZM53.15,45.65l5.36-5.49-5.52-5.36-5.33,5.48,5.49,5.37ZM53.12,57.95l17.72-17.75-5.48-5.43-17.78,17.81,5.54,5.36ZM77.78,58.03l17.85-17.82-5.57-5.38-17.7,17.76,5.42,5.44ZM71.69,51.86l5.33-5.5-5.36-5.37-5.47,5.47,5.5,5.4ZM53.1,70.43l5.27-5.64-17.7-17.63-5.35,5.55,17.79,17.72ZM77.87,70.42l5.28-5.63-17.73-17.67-5.36,5.57,17.81,17.73ZM102.63,70.36l5.3-5.56-17.73-17.69-5.34,5.57,17.76,17.67ZM102.65,58.03l5.3-5.45-5.39-5.4-5.46,5.49,5.55,5.37ZM59.33,64.24l5.32-5.54-5.43-5.4-5.37,5.54,5.47,5.4ZM84.06,64.24l5.31-5.52-5.39-5.4-5.44,5.49,5.52,5.44ZM32.93,78.12l13.15-13.18-5.37-5.43-7.87,7.9.08,10.71ZM53.13,82.73l17.74-17.82-5.48-5.38-17.76,17.76,5.5,5.45ZM77.9,82.72l17.72-17.74-5.47-5.44-17.79,17.84,5.54,5.34ZM102.6,82.83l7.84-7.95-.08-10.71-13.22,13.18,5.46,5.49ZM46.84,76.52l5.49-5.36-5.46-5.45-5.39,5.48,5.35,5.33ZM71.62,76.6l5.44-5.47-5.46-5.42-5.4,5.41,5.42,5.47ZM96.37,76.6l5.43-5.47-5.46-5.39-5.41,5.4,5.45,5.46ZM53.08,95.2l5.29-5.6-17.74-17.67-5.36,5.54,17.8,17.74ZM77.83,95.16l5.33-5.58-17.75-17.7-5.32,5.61,17.74,17.67ZM102.59,95.13l5.33-5.57-17.71-17.67-5.34,5.6,17.73,17.64ZM59.29,88.99l5.4-5.53-5.44-5.37-5.39,5.36,5.43,5.54ZM84.06,88.97l5.34-5.51-5.41-5.41-5.41,5.51,5.48,5.41ZM40.74,95.16l5.35-5.54-5.45-5.38-5.34,5.47,5.44,5.45ZM53.31,107.34l17.58-17.66-5.48-5.4-17.71,17.71c1.88,2.06,3.49,3.65,5.61,5.35ZM77.91,107.49l17.74-17.79-5.48-5.39-17.78,17.79,5.52,5.39ZM71.66,101.31l5.35-5.51-5.37-5.37-5.43,5.43,5.46,5.44ZM67.98,110.09l10.64-.22-13.24-13.23-5.35,5.58,7.95,7.86ZM90.32,107.46l5.24-5.46-5.41-5.37-5.46,5.49,5.63,5.34Z"/>
</svg>