<?xml version="1.0" encoding="UTF-8"?>
<svg id="Layer_1" data-name="Layer 1" xmlns="http://www.w3.org/2000/svg" viewBox="0 0 142.31 142.31">
  <defs>
    <style>
      .cls-1 {
        fill: #f0efeb;
      }

      .cls-2 {
        fill: #2b2925;
      }
    </style>
  </defs>
  <circle class="cls-1" cx="71.15" cy="71.15" r="71.15"/>
  <path class="cls-2" d="M71.52,96.6c-3.5,0-6.53-.55-9.11-1.66s-4.59-2.7-6.05-4.76c-1.46-2.06-2.26-4.52-2.4-7.37h7.19c.15,1.7.7,3.1,1.65,4.21s2.19,1.94,3.72,2.48c1.53.54,3.18.82,4.96.82,1.99,0,3.75-.31,5.29-.93s2.76-1.5,3.66-2.64,1.35-2.47,1.35-3.97c0-1.36-.39-2.48-1.18-3.35s-1.84-1.59-3.17-2.17-2.84-1.08-4.54-1.52l-5.47-1.51c-3.83-1.03-6.82-2.54-8.97-4.55s-3.22-4.62-3.22-7.82c0-2.7.73-5.06,2.18-7.08,1.46-2.02,3.43-3.59,5.94-4.71,2.5-1.12,5.32-1.68,8.46-1.68s6.03.56,8.46,1.68c2.44,1.12,4.36,2.65,5.75,4.6,1.39,1.95,2.12,4.17,2.18,6.66h-6.97c-.23-2.14-1.22-3.79-2.97-4.96-1.75-1.17-3.95-1.76-6.61-1.76-1.88,0-3.52.29-4.92.88-1.39.59-2.47,1.4-3.24,2.43-.76,1.04-1.15,2.21-1.15,3.53,0,1.49.46,2.69,1.37,3.6s2.02,1.63,3.33,2.17,2.56.96,3.75,1.27l4.55,1.19c1.49.38,3.02.88,4.6,1.52,1.58.64,3.04,1.47,4.38,2.48,1.34,1.02,2.42,2.27,3.25,3.77s1.24,3.3,1.24,5.42c0,2.64-.68,4.99-2.04,7.07-1.36,2.07-3.33,3.7-5.92,4.88-2.59,1.18-5.71,1.77-9.38,1.77ZM69.63,102.47v-60.12h3.77v60.12h-3.77Z"/>
</svg>