<?xml version="1.0" encoding="UTF-8"?>
<svg id="Layer_1" data-name="Layer 1" xmlns="http://www.w3.org/2000/svg" viewBox="0 0 142.31 142.31">
  <defs>
    <style>
      .cls-1 {
        fill: #f0efeb;
      }
    </style>
  </defs>
  <circle class="cls-1" cx="71.15" cy="71.15" r="71.15"/>
  <g>
    <path d="M58.82,85.37c1.57-2.17,1.54-4.92.04-7.04-1.58-2.23-4.32-3.15-6.94-2.35l-8.56,2.62c-2.5.77-5.11.29-7.18-1.33-1.88-1.48-2.97-3.77-2.94-6.38.09-8.6,3.1-16.87,8.52-23.51,7.68-9.42,19.26-14.6,31.31-14.28,20.69.55,37.38,17.49,37.37,38.14,0,20.41-16.4,37.32-36.9,38.09-4.69.18-9.39-.39-13.86-1.97-3.09-1.1-5.31-3.73-6.24-6.44-1.2-3.47-.79-7.07,1.24-9.86l4.13-5.68ZM60.9,86.18l-4.24,5.88c-1.65,2.29-2.14,5.1-1.17,7.99.72,2.15,2.46,4.35,4.98,5.24,4.18,1.48,8.56,1.99,12.93,1.83,19.34-.68,34.84-16.63,34.84-35.89s-15.6-35.3-34.99-35.92c-12.09-.39-23.65,5.05-30.87,14.89-4.47,6.08-6.92,13.42-6.9,21.01,0,1.83.86,3.38,2.16,4.38,1.42,1.09,3.2,1.45,4.93.93l9.3-2.77c3.27-.97,6.7.53,8.62,3.09,2.04,2.71,2.46,6.49.41,9.35Z"/>
    <path d="M51.3,53.13c4.09-.37,7.47,2.69,7.8,6.54s-2.6,7.45-6.56,7.79c-3.89.33-7.36-2.53-7.76-6.4s2.4-7.56,6.52-7.93ZM51.14,55.37c-2.87.47-4.6,3.13-4.11,5.84s3.01,4.44,5.69,4.01c2.69-.44,4.57-2.96,4.14-5.69s-2.87-4.62-5.72-4.16Z"/>
    <path d="M91.01,76.42c4.03-.74,7.68,1.95,8.38,5.79s-1.89,7.67-5.83,8.36c-3.82.67-7.55-1.83-8.31-5.69s1.69-7.72,5.76-8.47ZM91.17,78.64c-2.84.66-4.36,3.47-3.7,6.08s3.33,4.23,5.94,3.63,4.37-3.3,3.75-5.98-3.19-4.38-5.99-3.73Z"/>
    <path d="M69.17,86.64c4.02-.84,7.74,1.76,8.53,5.61s-1.72,7.73-5.69,8.49c-3.76.73-7.54-1.67-8.39-5.53s1.5-7.73,5.55-8.58ZM70.43,88.69c-2.91.13-4.98,2.59-4.76,5.39.21,2.65,2.51,4.74,5.29,4.57s4.8-2.46,4.66-5.22-2.34-4.86-5.19-4.73Z"/>
    <path d="M70.6,40.22c4.03-.73,7.67,1.97,8.36,5.8s-1.9,7.67-5.82,8.36c-3.84.68-7.56-1.83-8.32-5.68s1.7-7.74,5.78-8.48ZM70.76,42.44c-2.84.65-4.38,3.46-3.71,6.1s3.31,4.22,5.95,3.61c2.67-.61,4.37-3.29,3.74-5.98s-3.18-4.38-5.98-3.74Z"/>
    <path d="M90.86,52.02c4.03-.83,7.74,1.79,8.51,5.65s-1.74,7.68-5.69,8.45c-3.78.74-7.55-1.68-8.4-5.52s1.52-7.75,5.58-8.59ZM91.97,54.08c-2.89.2-4.86,2.68-4.63,5.41s2.6,4.75,5.34,4.54c2.7-.2,4.79-2.53,4.6-5.31-.18-2.63-2.43-4.84-5.31-4.63Z"/>
  </g>
</svg>